<svg xmlns="http://www.w3.org/2000/svg" viewBox="0 0 245 240" class="w-6 h-6 fill-white">
  <path d="M104.4 104.5c-5.7 0-10.2 5-10.2 11.1s4.6 11.1 10.2 11.1c5.7 0 10.2-5 10.2-11.1.1-6.1-4.5-11.1-10.2-11.1zm36.2 0c-5.7 0-10.2 5-10.2 11.1s4.6 11.1 10.2 11.1c5.7 0 10.2-5 10.2-11.1s-4.5-11.1-10.2-11.1z"></path>
  <path d="M189.5 20h-134C38.7 20 20 38.7 20 61.5v117c0 22.8 18.7 41.5 41.5 41.5h112.6l-5.3-18.5 12.8 11.9 12.1 11.1 21.4 18.5V61.5c0-22.8-18.7-41.5-41.5-41.5zm-39.6 137s-3.7-4.4-6.8-8.3c13.6-3.9 18.7-12.5 18.7-12.5-4.2 2.7-8.2 4.6-11.8 5.9-5.1 2.1-10 3.5-14.8 4.3-9.8 1.8-18.8 1.3-26.6-.1-5.8-1.1-10.8-2.6-15-4.3-2.3-.9-4.8-2-7.3-3.4-.3-.2-.5-.3-.8-.5-.2-.1-.3-.2-.4-.3-1.8-1-2.8-1.7-2.8-1.7s5 8.4 18.3 12.5c-3.1 3.9-6.9 8.5-6.9 8.5-22.8-.7-31.5-15.7-31.5-15.7 0-33.2 14.9-60.2 14.9-60.2 14.9-11.2 29.1-10.9 29.1-10.9l1 1.2c-18.7 5.4-27.4 13.6-27.4 13.6s2.3-1.3 6.2-3.1c11.3-5 20.3-6.3 24-6.6.6-.1 1.1-.2 1.7-.2 6.1-.8 13-1 20.2-.2 9.5 1.1 19.7 3.9 30.2 9.6 0 0-8.2-7.8-25.9-13.2l1.4-1.6s14.2-.3 29.1 10.9c0 0 14.9 27 14.9 60.2 0 0-8.8 15-31.6 15.7z"></path>
</svg>
